<svg id='Group_Of_Animals_24' width='24' height='24' viewBox='0 0 24 24' xmlns='http://www.w3.org/2000/svg' xmlns:xlink='http://www.w3.org/1999/xlink'><rect width='24' height='24' stroke='none' fill='#000000' opacity='0'/>


<g transform="matrix(0.4 0 0 0.4 12 12)" >
<path style="stroke: none; stroke-width: 1; stroke-dasharray: none; stroke-linecap: butt; stroke-dashoffset: 0; stroke-linejoin: miter; stroke-miterlimit: 4; fill: rgb(0,0,0); fill-rule: nonzero; opacity: 1;" transform=" translate(-25.98, -25)" d="M 23 0 C 18.649874 0 14.487864 0.72683813 11.306641 2.6503906 C 8.1254167 4.5739431 6 7.8152189 6 12.314453 C 6 18.878079 10.222838 24.258793 14.326172 27.992188 C 18.340725 31.644804 22.300801 33.758466 22.472656 33.849609 C 22.476457 33.851625 22.533203 33.884766 22.533203 33.884766 C 22.53580163644476 33.88607936420655 22.53840599459946 33.88738137661564 22.541016 33.888672 C 22.55645380648645 33.896234910001446 22.57208399754772 33.903398622529664 22.587891 33.910156 C 22.605883580133334 33.918509160180925 22.624120644324236 33.92632528303474 22.642578 33.933594 C 22.658717844805334 33.939218610028256 22.674999190069986 33.94442865385066 22.691406 33.949219 C 22.7030513008548 33.95334207368095 22.71477197806376 33.957249077214115 22.726562 33.960938 C 22.75361932910169 33.96859843420119 22.780987637849215 33.975114555204556 22.808594 33.980469 C 22.81119536930981 33.98113047794214 22.813799390400924 33.98178148321492 22.816406 33.982422 C 22.81705699984492 33.98242263547599 22.817708000155083 33.98242263547599 22.818359 33.982422 C 22.84296815741394 33.98660217914359 22.86772515353746 33.98985979274849 22.892578 33.992188 C 22.90945232959089 33.99457323439037 22.926384856331893 33.99652687205358 22.943359 33.998047 C 22.957029563182623 33.998327315302284 22.97070443681738 33.998327315302284 22.984375 33.998047 C 22.996731507221615 33.9989277126904 23.00910330788767 33.99957882500011 23.021484 34 C 23.042352990723106 33.99935055910525 23.06319653406683 33.998047921020444 23.083984 33.996094 C 23.099637455016772 33.99515958043726 23.115266774476176 33.99385722050535 23.130859 33.992188 C 23.134769166731882 33.99155986953134 23.138675568941377 33.99090852471375 23.142578 33.990234 C 23.166171366278782 33.98651751787391 23.189624063779558 33.98195726187245 23.212891 33.976562 C 23.213541999844917 33.97656263547599 23.21419300015508 33.97656263547599 23.214844 33.976562 C 23.239824046800663 33.971003383779674 23.26458159423563 33.96448825727462 23.289062 33.957031 C 23.295592403645784 33.955144411100825 23.3021034085036 33.953191309653874 23.308594 33.951172 C 23.318409335438776 33.94806760699136 23.32817616559376 33.94481188581535 23.337891 33.941406 C 23.35966201720181 33.93368931301221 23.381159236601054 33.92522090346499 23.402344 33.916016 C 23.404953673234292 33.914725041245916 23.407557698049946 33.91342269550158 23.410156 33.912109 C 23.429318260669852 33.903590599457935 23.448207927942263 33.89447176023847 23.466797 33.884766 C 23.472035204170865 33.88155870390877 23.47724375839533 33.87830323251318 23.482422 33.875 C 23.482572 33.874921 23.491953 33.871218 23.492188 33.871094 C 23.495454092410423 33.86915921062178 23.498709145143405 33.86720584564326 23.501953 33.865234 C 23.602071 33.812316 27.621496 31.679177 31.673828 27.992188 C 35.777162 24.258794 40 18.878079 40 12.314453 C 40 7.8152189 37.874583 4.5739431 34.693359 2.6503906 C 31.529386 0.73726841 27.394798 0.0098065417 23.070312 0.001953125 C 23.046904818741545 0.00047783146566318874 23.023452984543614 -0.00017361300566228833 23 0 z M 23 2 C 27.120874 2 30.95913 2.7300838 33.660156 4.3632812 C 36.361183 5.9964787 38 8.4126875 38 12.314453 C 38 18.007828 34.222838 22.968315 30.326172 26.513672 C 27.107714 29.441965 24.022752 31.276522 23 31.853516 C 21.977248 31.276522 18.892286 29.441965 15.673828 26.513672 C 11.777162 22.968315 8 18.007828 8 12.314453 C 8 8.4126875 9.6388171 5.9964788 12.339844 4.3632812 C 15.04087 2.7300838 18.879126 2 23 2 z M 23 5 C 21.853833 5 19.79853 5.2188603 17.863281 6.03125 C 16.895657 6.4374448 15.955303 6.9977957 15.224609 7.8125 C 15.07049 7.9843397 14.933374 8.1749551 14.802734 8.3710938 L 12.228516 7.1894531 C 12.107049585125479 7.133289023830351 11.975546688134461 7.1020737013745245 11.841797 7.0976562 C 11.405035888116448 7.084658142561597 11.010399674993819 7.356712069512575 10.867188 7.7695312 C 10.867188 7.7695312 10.338853 9.2175618 10.605469 10.898438 C 10.854128 12.466112 12.027217 14.277282 14.580078 14.974609 C 14.754583 15.725773 14.946439 16.491165 15.162109 17.267578 C 15.796312 19.550708 16.550781 21.816406 17.050781 23.316406 C 17.164137 23.65631 17.287228 23.958108 17.40625 24.269531 C 17.412238478543973 24.505482756354894 17.50148528676455 24.731713194174052 17.658203 24.908203 C 17.853765 25.329797 18.076791 25.72509 18.371094 26.087891 C 19.008473 26.873619 19.960458 27.411899 21.191406 27.658203 L 22.804688 27.980469 C 22.93363023958362 28.00614483551089 23.06636976041638 28.00614483551089 23.195312 27.980469 L 24.808594 27.658203 C 26.039542 27.411899 26.991527 26.873619 27.628906 26.087891 C 27.922838 25.725547 28.146399 25.331145 28.341797 24.910156 C 28.501655669027368 24.732196225561175 28.592431428313105 24.502831317678 28.597656 24.263672 C 28.715765 23.954157 28.836627 23.654019 28.949219 23.316406 C 29.447258 21.822288 30.2251 19.535423 30.871094 17.240234 C 31.0888 16.466733 31.282724 15.706693 31.457031 14.960938 C 33.973519 14.253118 35.131945 12.455408 35.378906 10.898438 C 35.645523 9.2175618 35.117188 7.7695312 35.117188 7.7695312 C 34.96960349141721 7.344515250591845 34.55638143632619 7.070366127977026 34.107422 7.0996094 C 33.98573633300744 7.107869589566298 33.86658791279396 7.13831857003675 33.755859 7.1894531 L 31.158203 8.3808594 C 31.022188 8.1792439 30.878548 7.9849982 30.71875 7.8085938 C 29.985774 6.9994449 29.053119 6.4396992 28.09375 6.0332031 C 26.175011 5.2202111 24.1465 5 23 5 z M 23 7 C 23.8535 7 25.762489 7.2182421 27.3125 7.875 C 28.087506 8.203379 28.772039 8.6376488 29.238281 9.1523438 C 29.255275 9.171104 29.266729 9.1920217 29.283203 9.2109375 L 24.628906 11.072266 C 24.201072520696947 11.24325493886866 23.94541603786756 11.68440379750987 24.009766 12.140625 L 24.847656 18 L 23.169922 18 C 23.1086321845493 17.98968714058123 23.046514464429396 17.985110006650316 22.984375 17.986328 C 22.938542460039987 17.987745669780754 22.892861680468112 17.992313781150106 22.847656 18 L 21.152344 18 L 21.990234 12.140625 C 22.05458396213244 11.68440379750987 21.798927479303053 11.24325493886866 21.371094 11.072266 L 16.675781 9.1953125 C 16.68945 9.1795534 16.698841 9.1621498 16.712891 9.1464844 C 17.169697 8.6371575 17.854343 8.2034302 18.636719 7.875 C 20.20147 7.2181397 22.146167 7 23 7 z M 12.662109 9.5878906 L 14.072266 10.236328 C 14.032023 10.484601 14 10.735767 14 11 C 14 11.530016 14.062682 12.12306 14.150391 12.740234 C 13.005954 12.209156 12.711162 11.410399 12.580078 10.583984 C 12.500318 10.081169 12.605139 9.9789477 12.662109 9.5878906 z M 33.322266 9.5878906 C 33.379236 9.9789477 33.484053 10.081169 33.404297 10.583984 C 33.274821 11.400266 32.988719 12.191593 31.878906 12.722656 C 31.961609 12.100384 32.016266 11.502234 32 10.96875 C 31.992306 10.715093 31.95368 10.47464 31.910156 10.236328 L 33.322266 9.5878906 z M 29.996094 11.087891 C 30.019248 12.29912 29.563338 14.503403 28.945312 16.699219 C 28.319056 18.92428 27.552742 21.177712 27.050781 22.683594 C 27.005864 22.818281 26.965261 22.901816 26.921875 23.025391 L 24 22.234375 L 24 20 L 26 20 C 26.289769580339037 20.000016187104524 26.565301409667402 19.87435062743613 26.75526568775293 19.6555356759284 C 26.945229965838458 19.436720724420674 27.030949799212923 19.146269812860634 26.990234 18.859375 L 26.294922 13.984375 C 26.362843328996956 13.994269260962232 26.4313636896898 13.999489863054244 26.5 14 C 27.001010728762605 13.999293415950229 27.468591511011844 13.748496665713567 27.746321380080722 13.331509412403301 C 28.024051249149604 12.914522159093035 28.075258258715152 12.386404141951571 27.882812 11.923828 L 29.943359 11.099609 C 29.961039624394058 11.096178484078006 29.978624369262548 11.092271059400487 29.996094 11.087891 z M 16.007812 11.091797 C 16.02659489584515 11.095593895532822 16.04548302510929 11.0988502395639 16.064453 11.101562 L 18.117188 11.923828 C 17.924741741284848 12.38640414195157 17.975948750850396 12.914522159093035 18.253678619919278 13.331509412403301 C 18.531408488988156 13.748496665713567 18.998989271237395 13.999293415950229 19.5 14 C 19.5686363103102 13.999489863054244 19.637156671003044 13.994269260962232 19.705078 13.984375 L 19.009766 18.859375 C 18.969050200787077 19.146269812860634 19.054770034161542 19.436720724420674 19.24473431224707 19.6555356759284 C 19.434698590332598 19.87435062743613 19.710230419660963 20.000016187104524 20 20 L 22 20 L 22 22.234375 L 19.078125 23.025391 C 19.034739 22.901816 18.994136 22.818281 18.949219 22.683594 C 18.449219 21.183594 17.703688 18.949292 17.087891 16.732422 C 16.484686 14.560887 16.026592 12.381504 16.007812 11.091797 z M 23 24.035156 L 26.046875 24.859375 C 25.708879 25.26398 25.31431 25.517524 24.416016 25.697266 L 23 25.980469 L 21.583984 25.697266 C 20.68569 25.517524 20.291121 25.26398 19.953125 24.859375 L 23 24.035156 z M 7.75 27 C 4.7244232 27 2.25 29.474423 2.25 32.5 C 2.25 33.481381 2.5137133 34.403352 2.96875 35.203125 C 2.3551618 36.333563 2 37.626706 2 39 C 2 41.516049 3.1744148 43.764085 5 45.232422 L 5 50 L 7 50 L 7 46.410156 C 7.6309382 46.666952 8.3018227 46.843785 9 46.931641 L 9 50 L 11 50 L 11 46.931641 C 11.677996 46.846365 12.328682 46.674496 12.943359 46.429688 L 14.828125 48.314453 C 15.874413 49.360741 17.058639 50 18.320312 50 C 19.581986 50 20.766212 49.360741 21.8125 48.314453 L 22.525391 47.599609 L 16.390625 41.582031 L 11.453125 36.646484 C 11.965142 36.342663 12.403654 35.981659 12.746094 35.519531 L 13.578125 35.90625 C 13.861346791850355 36.03797128794772 14.189846534779814 36.02980231041198 14.46617114002231 35.884166485097225 C 14.742495745264806 35.73853065978246 14.934908489473539 35.47215470522807 14.986328 35.164062 C 15.53076 31.89747 14.339148 29.85761 12.929688 28.917969 C 12.178183 28.416966 11.412964 28.199127 10.845703 28.095703 C 10.760131661597185 27.95744545463597 10.642141037519346 27.84213660727353 10.501953 27.759766 C 9.7049763 27.296463 8.7665566 27 7.75 27 z M 7.75 29 C 8.2015768 29 8.5986967 29.184303 9 29.349609 L 9 33.142578 L 9 35.650391 C 8.5986967 35.815697 8.2015768 36 7.75 36 C 5.8055768 36 4.25 34.444423 4.25 32.5 C 4.25 30.555577 5.8055768 29 7.75 29 z M 33.386719 30 C 32.574609 30 31.896496 30.371866 31.296875 30.833984 C 30.697254 31.296103 30.15982 31.883729 29.6875 32.513672 C 29.21518 33.143615 28.811988 33.814759 28.513672 34.457031 C 28.215356 35.099303 28 35.680175 28 36.332031 C 28 37.464327 28.648264 38.387484 29.427734 39.003906 C 29.861435 39.346886 30.349368 39.605572 30.863281 39.777344 C 30.677184 40.10608 30.516674 40.451779 30.400391 40.824219 C 30.098292 41.791792 29.929687 42.791038 29.929688 43.648438 C 29.929688 47.179088 32.969036 50 36.621094 50 L 41.310547 50 C 44.960928 50 48 47.179088 48 43.648438 C 48 42.791038 47.833349 41.791792 47.53125 40.824219 C 47.431823 40.505771 47.295218 40.209347 47.142578 39.923828 C 47.513426 39.874139 47.890552 39.795797 48.261719 39.654297 C 48.678243 39.495507 49.100679 39.251463 49.429688 38.851562 C 49.758696 38.451662 49.951172 37.898066 49.951172 37.332031 C 49.951172 36.680175 49.747305 36.074582 49.458984 35.351562 C 49.170663 34.628544 48.778721 33.840603 48.316406 33.089844 C 47.854091 32.339085 47.328224 31.627845 46.736328 31.060547 C 46.144432 30.493249 45.467169 30 44.566406 30 C 43.785841 30 43.078562 30.332857 42.5625 30.853516 C 41.484629 30.309935 40.259318 30 38.964844 30 C 37.676239 30 36.457106 30.308634 35.382812 30.847656 C 34.867763 30.330393 34.164352 30 33.386719 30 z M 11 30.320312 C 11.332887 30.401373 11.441606 30.329512 11.820312 30.582031 C 12.457688 31.006948 12.895698 31.930611 12.958984 33.414062 L 11 32.503906 L 11 30.320312 z M 7 31 C 6.447715250169207 31 6 31.447715250169207 6 32 C 6 32.5522847498308 6.447715250169207 33 7 33 C 7.552284749830793 33 8 32.5522847498308 8 32 C 8 31.447715250169207 7.552284749830793 31 7 31 z M 33.386719 32 C 33.474972 32 33.558078 32.018056 33.638672 32.044922 C 32.184991 33.368865 31.269531 35.22525 31.269531 37.296875 C 31.269531 37.470512 31.295326 37.635679 31.314453 37.802734 C 31.087016 37.708095 30.860185 37.587556 30.667969 37.435547 C 30.227189 37.086969 30 36.673735 30 36.332031 C 30 36.246891 30.09782 35.794681 30.328125 35.298828 C 30.558434 34.802975 30.897929 34.231948 31.287109 33.712891 C 31.676289 33.193833 32.118574 32.725475 32.517578 32.417969 C 32.916582 32.110462 33.258829 32 33.386719 32 z M 38.964844 32 C 42.154821 32 44.660156 34.393535 44.660156 37.296875 C 44.660156 37.766326 44.588766 38.226315 44.458984 38.679688 C 44.35804138511593 39.031828110680145 44.4576993891627 39.4109774677836 44.71875 39.667969 C 44.995111 39.939516 45.377192 40.640698 45.621094 41.421875 C 45.864995 42.203052 46 43.071837 46 43.648438 C 46 46.029787 43.944166 48 41.310547 48 L 39.964844 48 L 39.964844 44.765625 C 41.106379 44.263004 41.927734 43.073889 41.927734 42.75 C 41.927734 42.337 40.602844 42 38.964844 42 C 37.328844 42 36 42.337 36 42.75 C 36 43.074047 36.822435 44.26344 37.964844 44.765625 L 37.964844 48 L 36.621094 48 C 33.985151 48 31.929688 46.029787 31.929688 43.648438 C 31.929688 43.071837 32.064692 42.203052 32.308594 41.421875 C 32.552495 40.640698 32.934576 39.939516 33.210938 39.667969 C 33.47198825406357 39.41097725648418 33.57164586690081 39.03182792815896 33.470703 38.679688 C 33.340664 38.224552 33.269531 37.766326 33.269531 37.296875 C 33.269531 34.3947 35.775046 32 38.964844 32 z M 44.566406 32 C 44.605646 32 44.944834 32.11408 45.351562 32.503906 C 45.758293 32.893733 46.214096 33.490431 46.613281 34.138672 C 47.012466 34.786913 47.361258 35.48919 47.601562 36.091797 C 47.841867 36.694404 47.951172 37.246887 47.951172 37.332031 C 47.951172 37.502996 47.926606 37.529229 47.884766 37.580078 C 47.842936 37.630928 47.742179 37.711446 47.548828 37.785156 C 47.319326 37.87265 46.97379 37.923265 46.601562 37.957031 C 46.632338 37.741088 46.660156 37.523474 46.660156 37.296875 C 46.660156 35.228317 45.748254 33.374188 44.298828 32.050781 C 44.38401 32.020383 44.472415 32 44.566406 32 z M 4.4042969 36.851562 C 5.3332442 37.568204 6.4926479 38 7.75 38 C 8.4154947 38 9.0422888 37.862276 9.6230469 37.644531 L 14.287109 42.308594 C 12.32483 42.662068 11.101292 42.077518 10.234375 41.384766 C 9.2432714 40.592776 8.8339844 39.660156 8.8339844 39.660156 L 7 40.453125 C 7 40.453125 7.5919318 41.833005 8.9863281 42.947266 C 9.8436412 43.632343 11.049896 44.212706 12.558594 44.353516 C 11.796795 44.759908 10.937908 45 10 45 C 6.674438 45 4 42.325562 4 39 C 4 38.238459 4.1471125 37.517276 4.4042969 36.851562 z M 36 38 C 35.4477152501692 38 35 38.4477152501692 35 39 C 35 39.5522847498308 35.4477152501692 40 36 40 C 36.5522847498308 40 37 39.5522847498308 37 39 C 37 38.4477152501692 36.5522847498308 38 36 38 z M 42 38 C 41.4477152501692 38 41 38.4477152501692 41 39 C 41 39.5522847498308 41.4477152501692 40 42 40 C 42.5522847498308 40 43 39.5522847498308 43 39 C 43 38.4477152501692 42.5522847498308 38 42 38 z M 16.123047 44.121094 L 19.585938 47.517578 C 19.127588 47.813254 18.69977 48 18.320312 48 C 17.725486 48 17.0529 47.711103 16.242188 46.900391 L 14.759766 45.417969 C 15.265159 45.041696 15.719393 44.603605 16.123047 44.121094 z" stroke-linecap="round" />
</g>
</svg>